<svg xmlns="http://www.w3.org/2000/svg" xmlns:xlink="http://www.w3.org/1999/xlink" width="800" zoomAndPan="magnify" viewBox="0 0 600 599.999999" height="800" preserveAspectRatio="xMidYMid meet" version="1.0"><path fill="#000000" d="M 113.128906 261.621094 C 113.128906 262.714844 113.160156 262.738281 114.808594 262.964844 C 115.730469 263.09375 117.390625 263.660156 118.492188 264.226562 C 120.128906 265.066406 120.730469 265.617188 121.757812 267.21875 C 122.503906 268.382812 128.800781 283.085938 137.179688 303.242188 L 151.339844 337.304688 L 153.769531 337.394531 L 156.195312 337.488281 L 169.265625 306.609375 C 176.457031 289.628906 183.023438 274.257812 183.863281 272.457031 C 185.785156 268.34375 187.960938 265.863281 190.945312 264.394531 C 194.964844 262.414062 197.960938 262.996094 199.507812 266.0625 L 200.246094 267.519531 L 200.246094 299.035156 C 200.246094 319.820312 200.128906 330.847656 199.90625 331.433594 C 199.722656 331.917969 199.613281 332.359375 199.667969 332.414062 C 199.71875 332.464844 202.265625 332.140625 205.324219 331.691406 L 211.871094 330.734375 L 212.851562 330.589844 L 212.765625 299.613281 C 212.707031 278.609375 212.789062 268.21875 213.027344 267.347656 C 213.839844 264.328125 217 262.4375 220.089844 263.132812 C 222.382812 263.644531 224.074219 264.46875 226.050781 266.042969 L 227.78125 267.417969 L 227.6875 298.347656 C 227.582031 331.832031 227.46875 329.566406 229.226562 329.09375 C 229.878906 328.917969 229.882812 328.679688 229.792969 299.546875 C 229.734375 281.769531 229.816406 270.304688 230 270.5 C 230.164062 270.675781 239.539062 283.753906 250.832031 299.558594 L 271.367188 328.296875 L 280.480469 328.296875 L 280.480469 299.210938 C 280.480469 266.996094 280.425781 267.898438 282.570312 265.6875 C 286.085938 262.070312 291.375 262.421875 293.214844 266.398438 C 293.691406 267.425781 293.753906 270.726562 293.835938 297.921875 L 293.929688 328.296875 L 306.355469 328.296875 L 306.355469 262.796875 L 311.351562 262.796875 C 317.453125 262.796875 323.792969 263.5 327.078125 264.542969 C 334.621094 266.941406 339.898438 274.800781 342.441406 287.414062 C 343.089844 290.632812 343.191406 292.125 343.195312 298.65625 C 343.195312 304.640625 343.078125 306.789062 342.605469 309.097656 C 341.070312 316.644531 338.34375 322.574219 334.554688 326.617188 C 333.8125 327.40625 333.210938 328.105469 333.210938 328.175781 C 333.210938 328.242188 336.4375 328.296875 340.386719 328.296875 L 347.5625 328.296875 L 349.089844 326.269531 C 351.164062 323.507812 352.050781 321.9375 353.394531 318.644531 C 355.894531 312.511719 357.003906 304.40625 356.476562 296.132812 C 355.695312 283.800781 352.804688 275.886719 346.84375 269.726562 C 343.226562 265.988281 339.308594 263.765625 333.757812 262.304688 C 327.945312 260.769531 327.078125 260.734375 295.957031 260.597656 L 266.398438 260.46875 L 266.398438 261.589844 C 266.398438 262.707031 266.398438 262.707031 268.28125 262.921875 C 272.96875 263.457031 276.214844 265.367188 277.492188 268.335938 C 278.191406 269.960938 278.195312 270.074219 278.109375 292.984375 L 278.027344 316.003906 L 238.457031 260.503906 L 168.804688 260.503906 L 168.804688 262.699219 L 171.671875 262.886719 C 176.726562 263.214844 179.917969 265.027344 180.453125 267.882812 C 181 270.789062 180.664062 271.746094 169.929688 298.074219 C 164.183594 312.164062 159.382812 323.585938 159.257812 323.457031 C 158.640625 322.816406 136.382812 268.234375 136.382812 267.363281 C 136.382812 264.980469 138.308594 263.386719 141.753906 262.914062 C 143.203125 262.714844 143.257812 262.667969 143.257812 261.605469 L 143.257812 260.503906 L 113.128906 260.503906 Z M 354.824219 261.648438 C 354.824219 262.542969 354.957031 262.796875 355.421875 262.796875 C 357.730469 262.796875 360.609375 264.855469 361.332031 267.019531 C 361.597656 267.820312 361.703125 276.695312 361.703125 298.339844 L 361.703125 328.546875 L 365.222656 328.757812 C 367.160156 328.871094 369.960938 329.054688 371.445312 329.160156 L 374.148438 329.355469 L 374.148438 301.378906 L 384.382812 301.539062 C 390.707031 301.632812 395.210938 301.84375 396.175781 302.085938 C 399.636719 302.957031 402.285156 305.800781 402.796875 309.199219 C 402.996094 310.550781 403.058594 310.613281 404.132812 310.613281 L 405.257812 310.613281 L 405.257812 287.6875 L 404.160156 287.6875 C 403.078125 287.6875 403.054688 287.714844 402.855469 289.386719 C 402.582031 291.695312 401.242188 294.308594 399.617188 295.699219 C 396.703125 298.191406 393.148438 298.820312 381.984375 298.820312 L 374.148438 298.820312 L 374.148438 262.796875 L 383.234375 262.808594 C 393.46875 262.820312 396.117188 263.132812 399.4375 264.71875 C 404.703125 267.230469 408.195312 271.574219 411.359375 279.535156 C 412.832031 283.238281 412.953125 283.429688 413.84375 283.429688 C 414.355469 283.429688 414.835938 283.246094 414.910156 283.019531 C 414.984375 282.792969 413.984375 277.671875 412.6875 271.640625 L 410.332031 260.667969 L 382.578125 260.585938 L 354.824219 260.5 Z M 416.066406 261.769531 C 416.066406 262.996094 416.109375 263.042969 417.339844 263.207031 C 418.863281 263.414062 421.578125 264.730469 423.320312 266.109375 L 424.582031 267.109375 L 424.582031 297.824219 C 424.582031 330.902344 424.632812 329.875 422.894531 332.222656 C 421.902344 333.566406 419.203125 334.839844 416.84375 335.085938 L 414.921875 335.285156 L 419.34375 336.359375 C 423.664062 337.414062 423.929688 337.4375 431.214844 337.453125 L 438.664062 337.46875 L 438.664062 335.265625 L 436.519531 335.046875 C 433.511719 334.738281 430.996094 333.710938 429.332031 332.109375 C 426.765625 329.644531 426.859375 330.988281 426.953125 298.773438 L 427.039062 270.414062 L 450.128906 302.691406 C 462.824219 320.441406 473.621094 335.527344 474.117188 336.214844 C 474.902344 337.304688 475.191406 337.46875 476.324219 337.46875 L 477.625 337.46875 L 477.714844 302.996094 L 477.800781 268.527344 L 478.625 267.054688 C 479.804688 264.9375 481.972656 263.59375 485.011719 263.082031 L 487.460938 262.667969 L 487.460938 260.503906 L 463.554688 260.503906 L 463.554688 262.710938 L 465.503906 262.933594 C 469.808594 263.421875 473.085938 265.253906 474.394531 267.914062 L 475.179688 269.511719 L 475.269531 292.925781 L 475.359375 316.34375 L 473.796875 314.171875 C 472.9375 312.976562 463.980469 300.414062 453.894531 286.253906 L 435.554688 260.511719 L 425.808594 260.507812 L 416.066406 260.503906 Z M 415.960938 315.113281 C 415.878906 315.25 415.132812 317.101562 414.304688 319.234375 C 411.726562 325.84375 409.347656 329.355469 405.480469 332.238281 L 404.230469 333.171875 L 405.480469 333.394531 C 406.171875 333.515625 408.371094 333.941406 410.375 334.34375 L 414.019531 335.070312 L 416.070312 325.378906 C 417.199219 320.050781 418.191406 315.503906 418.273438 315.277344 C 418.445312 314.828125 416.222656 314.671875 415.960938 315.113281 M 217.601562 342.542969 C 217.601562 342.8125 217.875 343.035156 218.207031 343.035156 C 218.539062 343.035156 219.054688 343.304688 219.351562 343.632812 C 219.832031 344.164062 219.894531 345.441406 219.894531 355.046875 C 219.894531 365.105469 219.851562 365.894531 219.296875 366.398438 C 218.964844 366.699219 218.449219 366.941406 218.148438 366.941406 C 217.847656 366.941406 217.601562 367.164062 217.601562 367.433594 C 217.601562 367.84375 218.3125 367.925781 222.023438 367.925781 C 225.582031 367.925781 226.445312 367.835938 226.445312 367.46875 C 226.445312 367.21875 226.070312 366.917969 225.613281 366.804688 C 224.390625 366.496094 224.152344 365.445312 224.152344 360.324219 L 224.152344 355.714844 L 227.949219 355.882812 C 232.164062 356.070312 233.394531 356.578125 233.589844 358.214844 C 233.648438 358.699219 233.898438 359.082031 234.164062 359.082031 C 234.546875 359.082031 234.632812 358.320312 234.632812 354.960938 C 234.632812 352.035156 234.523438 350.875 234.261719 350.964844 C 234.058594 351.03125 233.726562 351.582031 233.523438 352.1875 C 232.867188 354.167969 231.792969 354.644531 227.730469 354.769531 L 224.152344 354.882812 L 224.152344 342.617188 L 228 342.777344 C 230.625 342.882812 232.171875 343.101562 232.863281 343.457031 C 234.332031 344.21875 235.707031 345.921875 236.574219 348.050781 C 236.988281 349.074219 237.53125 349.910156 237.78125 349.910156 C 238.03125 349.910156 238.234375 349.835938 238.234375 349.746094 C 238.234375 349.597656 237.230469 344.894531 236.753906 342.789062 L 236.585938 342.050781 L 227.09375 342.050781 C 218.875 342.050781 217.601562 342.117188 217.601562 342.542969 M 266.070312 342.542969 C 266.070312 342.8125 266.359375 343.035156 266.707031 343.035156 C 267.058594 343.035156 267.574219 343.363281 267.855469 343.761719 C 268.289062 344.382812 268.363281 346.015625 268.363281 354.988281 C 268.363281 363.960938 268.289062 365.59375 267.855469 366.214844 C 267.574219 366.613281 267.058594 366.941406 266.707031 366.941406 C 266.359375 366.941406 266.070312 367.164062 266.070312 367.433594 C 266.070312 367.84375 266.78125 367.925781 270.492188 367.925781 C 274.203125 367.925781 274.914062 367.84375 274.914062 367.433594 C 274.914062 367.164062 274.628906 366.941406 274.277344 366.941406 C 273.929688 366.941406 273.414062 366.613281 273.132812 366.214844 C 272.695312 365.59375 272.621094 363.960938 272.621094 354.988281 C 272.621094 346.015625 272.695312 344.382812 273.132812 343.761719 C 273.414062 343.363281 273.929688 343.035156 274.277344 343.035156 C 274.628906 343.035156 274.914062 342.8125 274.914062 342.542969 C 274.914062 342.128906 274.203125 342.050781 270.492188 342.050781 C 266.78125 342.050781 266.070312 342.128906 266.070312 342.542969 M 302.75 342.542969 C 302.75 342.8125 303.023438 343.035156 303.355469 343.035156 C 303.6875 343.035156 304.203125 343.304688 304.503906 343.632812 C 304.984375 344.164062 305.042969 345.441406 305.042969 355.046875 C 305.042969 365.105469 305.003906 365.894531 304.445312 366.398438 C 304.117188 366.699219 303.601562 366.941406 303.300781 366.941406 C 303 366.941406 302.75 367.164062 302.75 367.433594 C 302.75 367.859375 304.019531 367.925781 312.199219 367.925781 L 321.648438 367.925781 L 322.355469 365.222656 C 322.746094 363.738281 323.0625 362.410156 323.0625 362.273438 C 323.050781 361.664062 322.160156 362.121094 321.636719 363.007812 C 320.257812 365.34375 317.082031 366.800781 312.652344 367.136719 L 309.714844 367.355469 L 309.558594 356.097656 C 309.472656 349.902344 309.523438 344.507812 309.667969 344.109375 C 309.8125 343.707031 310.308594 343.285156 310.765625 343.171875 C 311.222656 343.058594 311.59375 342.757812 311.59375 342.507812 C 311.59375 342.140625 310.730469 342.050781 307.171875 342.050781 C 303.460938 342.050781 302.75 342.128906 302.75 342.542969 M 351.292969 342.433594 C 351.367188 342.652344 351.832031 342.941406 352.328125 343.074219 C 354.230469 343.585938 354.167969 343.195312 354.167969 354.714844 L 354.167969 365.335938 L 353.367188 366.136719 C 352.921875 366.578125 352.1875 366.941406 351.726562 366.941406 C 351.207031 366.941406 350.894531 367.125 350.894531 367.433594 C 350.894531 367.84375 351.585938 367.925781 355.152344 367.925781 C 357.71875 367.925781 359.410156 367.796875 359.410156 367.601562 C 359.410156 367.308594 359.082031 367.199219 356.875 366.753906 C 355.222656 366.417969 355.136719 365.828125 355.226562 355.628906 L 355.316406 346.179688 L 360.425781 356.804688 C 364.308594 364.882812 365.6875 367.457031 366.171875 367.527344 C 366.722656 367.613281 367.390625 366.125 371.214844 356.308594 L 375.621094 344.992188 L 375.707031 355.363281 C 375.785156 364.664062 375.738281 365.796875 375.246094 366.339844 C 374.945312 366.671875 374.429688 366.941406 374.097656 366.941406 C 373.761719 366.941406 373.492188 367.164062 373.492188 367.433594 C 373.492188 367.847656 374.21875 367.925781 378.078125 367.925781 C 381.933594 367.925781 382.660156 367.847656 382.660156 367.433594 C 382.660156 367.164062 382.378906 366.941406 382.03125 366.941406 C 381.683594 366.941406 381.167969 366.710938 380.882812 366.425781 C 380.4375 365.980469 380.371094 364.492188 380.375 355.046875 C 380.378906 349.070312 380.492188 344.003906 380.625 343.792969 C 380.761719 343.578125 381.277344 343.25 381.769531 343.0625 C 383.625 342.355469 382.71875 342.027344 379.175781 342.121094 L 375.6875 342.214844 L 371.886719 351.957031 C 369.796875 357.3125 368.003906 361.695312 367.898438 361.699219 C 367.792969 361.699219 365.628906 357.316406 363.082031 351.957031 L 358.457031 342.214844 L 354.808594 342.121094 C 352.035156 342.050781 351.191406 342.125 351.292969 342.433594 " fill-opacity="1" fill-rule="evenodd"/></svg>